PathFileType	4	(X/Y/Z)	5_coords_data.trc
DataRate	CameraRate	NumFrames	NumMarkers	Units	OrigDataRate	OrigDataStartFrame	OrigNumFrames
30.0	30.0	5	21	m	30.0	53	63
Frame#	Time	THUMB_TIP	THUMB_IP	THUMB_MCP	THUMB_CMC	INDEX_TIP	INDEX_DIP	INDEX_PIP	INDEX_MCP	MIDDLE_TIP	MIDDLE_DIP	MIDDLE_PIP	MIDDLE_MCP	RING_TIP	RING_DIP	RING_PIP	RING_MCP	PINKY_TIP	PINKY_DIP	PINKY_PIP	PINKY_MCP	WRIST
X1	Y1	Z1	X2	Y2	Z2	X3	Y3	Z3	X4	Y4	Z4	X5	Y5	Z5	X6	Y6	Z6	X7	Y7	Z7	X8	Y8	Z8	X9	Y9	Z9	X10	Y10	Z10	X11	Y11	Z11	X12	Y12	Z12	X13	Y13	Z13	X14	Y14	Z14	X15	Y15	Z15	X16	Y16	Z16	X17	Y17	Z17	X18	Y18	Z18	X19	Y19	Z19	X20	Y20	Z20	X21	Y21	Z21
51	1.7333333333333258	0.5123108643737311	-0.020704179716986792	-0.1625915597325739	0.5097592410065561	-0.02444760855604411	-0.14006433267909477	0.4882184402668285	-0.02890700981382588	-0.11804325995514582	0.47830355471388175	-0.030354981408830417	-0.07457501381233453	0.593213045262579	0.04449775592587324	-0.12691513592188	0.5775723240885956	0.03582266318037641	-0.12406722317484316	0.5554729810337213	0.02496276231398664	-0.11899855246989757	0.520137790309325	0.004204447515425036	-0.10741611934061271	0.6055840096608294	0.05549335658996002	-0.10200272772651316	0.590255486680472	0.045900523530267745	-0.10099578327445508	0.5643628096302169	0.03287132363403167	-0.09795953966843222	0.5255857142571745	0.01252029914144448	-0.08910964715314806	0.600744572029887	0.05799505662976978	-0.08035341109757715	0.5853112335640569	0.04899430570684116	-0.0779453939417961	0.563123850048944	0.03799871705973634	-0.0753002054689349	0.5293478973890001	0.016075484731461587	-0.07165634210792343	0.5893213431409995	0.05243201743066617	-0.051500793096034184	0.5744491358500465	0.043957722420267076	-0.051439357181031625	0.5564398576827473	0.03317441255776632	-0.051884494577947526	0.527496952442932	0.011673653472862755	-0.05283793364364914	0.4622830810018609	-0.023011742144276925	-0.051989820119430985
52	1.7666666666666588	0.5124937935724131	-0.020585279719049998	-0.1624956437318972	0.50990036211651	-0.02433779462466612	-0.13997470358352282	0.48831579313311513	-0.028863668381357788	-0.11801012189983145	0.4783354465381112	-0.03033836902291598	-0.07455775786907488	0.5932267913244478	0.04451423473228944	-0.12689128032647012	0.5776033359346363	0.035808481832287686	-0.12404215622831646	0.5554978792672441	0.024962218946816606	-0.11897094336103305	0.5201490356698195	0.00422353901577488	-0.10739499825738737	0.6057396337936128	0.05524556215150256	-0.1019290322951148	0.590368655134937	0.04571934424086066	-0.10093697010275983	0.5644221763055283	0.03279424388623697	-0.09791512179783943	0.5255728760010765	0.012575548452287477	-0.0890785986238915	0.6008998632536373	0.057771790822100266	-0.08014363377905984	0.585418208729138	0.04884716967022107	-0.07776256039096657	0.5631656000676066	0.03797010331809114	-0.07517589954576416	0.5293405789481148	0.01610906166231052	-0.07161448999473409	0.5893012121402059	0.052459262659113826	-0.05136525220736621	0.5744171489249471	0.044005673715836635	-0.05132657169192274	0.556381839671167	0.03326782785617477	-0.05181473704777656	0.5274676095407459	0.01172976709654705	-0.052795902517838084	0.4622830810018609	-0.023011742144276925	-0.051989820119430985
53	1.7999999999999918	0.5127868765376206	-0.0205271109131836	-0.16235975252548498	0.5101176175836453	-0.024269688259348055	-0.1398460195732489	0.4884617724620671	-0.028841644902441232	-0.11796128552131464	0.47838008398611176	-0.0303184862615542	-0.07453239540109857	0.593385031160687	0.04436609952493864	-0.12674573550445054	0.5777379451617232	0.03569720891319739	-0.12391394538110179	0.5555919437031032	0.02491711987733336	-0.11887865663330884	0.5201752144080171	0.004271427848803522	-0.10734406601631316	0.6059201360826305	0.05499692304555326	-0.10177719044133754	0.5904911787140877	0.04556244698701295	-0.10080871947093213	0.5644879606620821	0.032744215978665836	-0.09781954654911938	0.5255618205363872	0.01265869337151071	-0.0890175401010288	0.6011237579974007	0.0574497680571584	-0.07984553170963034	0.5855629959732193	0.048651439312162315	-0.0775105592211909	0.5632228840913316	0.037936010598998204	-0.07500477239908468	0.5293247340154177	0.016172683171499336	-0.07154156078061531	0.5893752717109291	0.052340016516653654	-0.05117193013948122	0.5744466491659413	0.04396528478043216	-0.05116206831388731	0.5563638158736658	0.033309825491800504	-0.051695309790220675	0.5274315662432204	0.011798684797875603	-0.0527341593307049	0.4622830810018609	-0.023011742144276925	-0.05198982011943097
55	1.8333333333333337	0.5130850034422776	-0.020376898341336713	-0.1622208527130137	0.5103429145031967	-0.024128655082197525	-0.13971740254181603	0.488621465045585	-0.0287742736828952	-0.1179133464678359	0.4784255939639257	-0.03028047872618511	-0.07451213036443913	0.5934907392747769	0.04436119896099722	-0.1265402039598632	0.5778255019541653	0.03571741356850611	-0.12373212387242426	0.5556476863094443	0.024978256964843903	-0.11874967049373719	0.5201846245467467	0.004374007436835914	-0.10728353575692702	0.6060214784289542	0.05491136572600852	-0.10159475082859942	0.5905526691317078	0.04553910309518894	-0.10065846449186044	0.5645190369529972	0.03277498586166527	-0.09770264703598187	0.5255385309663276	0.012776176420713159	-0.08894389741245107	0.6012829110922836	0.05723602373240799	-0.07957663260972614	0.5856572724856828	0.048542954555017115	-0.07728099186845094	0.5632553195873823	0.037943255282064325	-0.07483582098172457	0.5293014456956449	0.016253248057939818	-0.07145959996386722	0.5894181344040801	0.05227120429536625	-0.05095743219091105	0.5744581983486341	0.04395256950237314	-0.05098250005424532	0.5563474613328019	0.03334716896243539	-0.05156448212514922	0.5273973128513973	0.011863866955228008	-0.05267807485669322	0.4622830810018609	-0.023011742144276925	-0.051989820119431
56	1.8666666666666671	0.5133817356822239	-0.020223158888415194	-0.16208180037487344	0.5105607664733025	-0.023983086341307636	-0.13958946660820304	0.48877053841904017	-0.028701845267107395	-0.11786990686258599	0.478467898637871	-0.03023931971718774	-0.07449500875486911	0.5936320233379647	0.04428744241592164	-0.12632475112587319	0.5779295056810584	0.035702949273126894	-0.12354312988712518	0.5557002073445911	0.025042598944228778	-0.11862123397868711	0.5201792973159618	0.004497860742828319	-0.10722760519002034	0.6061529133219601	0.054764975882104716	-0.10140689443007399	0.5906297216093329	0.04547971001408735	-0.1005044772243104	0.5645483700068693	0.032804999169046334	-0.09758482765916103	0.5255021564936293	0.012914794423109499	-0.08887156842720975	0.601468847507637	0.05696450933218322	-0.07930884568411364	0.5857641822298296	0.04840406693131727	-0.07705444678119266	0.5632860280709558	0.03795301022385711	-0.07466949849928825	0.5292647463886393	0.016355667580763456	-0.07137890319611281	0.5895006958396622	0.052138039065831476	-0.05075502748812433	0.574494365736869	0.043903540947045294	-0.05081068337462641	0.5563407729674695	0.03337431099548582	-0.051438700245413665	0.5273572161314245	0.011939722648787288	-0.052619931187829094	0.4622830810018609	-0.023011742144276925	-0.051989820119431
